<svg id="Capa_1" data-name="Capa 1" xmlns="http://www.w3.org/2000/svg" viewBox="0 0 792 612"><defs><style>.cls-1,.cls-17{fill:#d4ccb1;}.cls-1,.cls-10,.cls-11,.cls-2,.cls-29,.cls-3,.cls-4,.cls-5,.cls-6,.cls-7,.cls-8,.cls-9{stroke:#211915;}.cls-1,.cls-10,.cls-11,.cls-2,.cls-25,.cls-26,.cls-29,.cls-3,.cls-4,.cls-5,.cls-6,.cls-7,.cls-8,.cls-9{stroke-miterlimit:10;}.cls-2{fill:#eae4d9;}.cls-3{fill:#eae5db;}.cls-12,.cls-4{fill:#bbb48d;}.cls-16,.cls-5{fill:#fff;}.cls-6{fill:#d3ccb0;}.cls-7{fill:#bbb58e;}.cls-8{fill:#4f482e;}.cls-9{fill:#d4ccb0;}.cls-10{fill:#c0b396;}.cls-11{fill:#d4cab1;}.cls-13{fill:#db9731;}.cls-14{fill:#4c190f;}.cls-15{fill:#831a21;}.cls-18{fill:#ece5df;}.cls-19{fill:#998851;}.cls-20{fill:#dfdcca;}.cls-21{fill:#9e8b5e;}.cls-22{fill:#cebc88;}.cls-23{fill:#d68634;}.cls-24{fill:#14402a;}.cls-25,.cls-26{fill:none;}.cls-25{stroke:#009bdb;}.cls-26{stroke:#9b897b;}.cls-27{fill:#938c5e;}.cls-28{fill:#ded2c9;}.cls-29{fill:#eeefe7;}.cls-30{fill:#6a438c;}.cls-31{fill:#b3454b;}.cls-32{fill:#c2427d;}</style></defs><title>Mesa de trabajo 1</title><rect class="cls-1" x="554.49" y="135.59" width="141.73" height="141.73"/><rect class="cls-1" x="327.71" y="135.59" width="141.73" height="141.73"/><rect class="cls-2" x="696.22" y="135.59" width="85.04" height="141.73"/><rect class="cls-3" x="469.45" y="135.59" width="85.04" height="141.73"/><rect class="cls-4" x="554.49" y="50.55" width="141.73" height="85.04"/><rect class="cls-4" x="554.49" y="277.32" width="141.73" height="85.04"/><path class="cls-5" d="M696.22,136.15h84a1,1,0,0,0,.72-1.77l-13-12.66a1,1,0,0,0-.69-.28H711.1a1,1,0,0,0-.68.28l-14.2,13.87"/><path class="cls-5" d="M781.24,277.88,767,291.75a1,1,0,0,1-.69.28H710.18a1,1,0,0,1-.68-.28l-13-12.66a1,1,0,0,1,.72-1.77h84"/><path class="cls-5" d="M469.46,135.31l14.2-13.87a1,1,0,0,1,.68-.28h56.17a1,1,0,0,1,.68.28l13,12.66a1,1,0,0,1-.72,1.77h-84"/><path class="cls-5" d="M554.48,277.6l-14.2,13.87a1,1,0,0,1-.69.28H483.42a1,1,0,0,1-.68-.28l-13-12.67a1,1,0,0,1,.72-1.76h84"/><path class="cls-5" d="M554.49,50.3l23.67-13.87a2.26,2.26,0,0,1,1.14-.28h93.64a2.32,2.32,0,0,1,1.14.28L695.7,49.09c1.1.65.34,1.77-1.2,1.77h-140"/><path class="cls-5" d="M696.22,362.92l-23.68,13.87a2.26,2.26,0,0,1-1.14.28H577.77a2.26,2.26,0,0,1-1.14-.28L555,364.13c-1.11-.65-.34-1.77,1.2-1.77h140"/><rect class="cls-6" x="586.37" y="382.35" width="141.73" height="184.25" transform="translate(1131.7 -182.76) rotate(90)"/><rect class="cls-7" x="380.85" y="382.35" width="141.73" height="184.25" transform="translate(926.19 22.75) rotate(90)"/><rect class="cls-8" x="158.25" y="141.96" width="28.35" height="198.43" transform="translate(-68.74 413.59) rotate(-90)"/><polygon class="cls-9" points="300.06 261.21 259.97 255.34 259.97 227 300.06 221.13 300.06 261.21"/><polygon class="cls-5" points="77.24 246.83 24.63 246.83 40.58 263.85 64.1 263.85 77.24 246.83"/><polygon class="cls-5" points="24.63 235.21 77.24 235.21 61.28 218.19 37.77 218.19 24.63 235.21"/><rect class="cls-8" x="158.31" y="65.46" width="28.35" height="198.43" transform="translate(7.81 337.16) rotate(-90)"/><polygon class="cls-9" points="300.12 184.72 260.03 178.85 260.03 150.5 300.12 144.63 300.12 184.72"/><polygon class="cls-5" points="77.24 170.34 24.63 170.34 40.58 187.36 64.1 187.36 77.24 170.34"/><polygon class="cls-5" points="24.63 160.34 77.24 160.34 61.28 143.32 37.77 143.32 24.63 160.34"/><rect class="cls-8" x="158.25" y="411.73" width="28.35" height="198.43" transform="translate(-338.52 683.37) rotate(-90)"/><polygon class="cls-9" points="300.06 530.99 259.97 525.12 259.97 496.77 300.06 490.9 300.06 530.99"/><polygon class="cls-5" points="68.68 513.97 16.07 513.97 32.03 530.99 55.54 530.99 68.68 513.97"/><polygon class="cls-5" points="16.07 505.28 68.68 505.28 52.73 488.26 29.21 488.26 16.07 505.28"/><rect class="cls-8" x="158.31" y="335.24" width="28.35" height="198.43" transform="translate(-261.97 606.94) rotate(-90)"/><polygon class="cls-9" points="300.12 454.5 260.03 448.62 260.03 420.28 300.12 414.41 300.12 454.5"/><polygon class="cls-5" points="68.68 437.48 16.07 437.48 32.03 454.5 55.54 454.5 68.68 437.48"/><polygon class="cls-5" points="16.07 428.79 68.68 428.79 52.73 411.77 29.21 411.77 16.07 428.79"/><rect class="cls-10" x="162.4" y="334.17" width="28.35" height="28.35"/><rect class="cls-10" x="208.38" y="334.17" width="28.35" height="28.35"/><rect class="cls-11" x="262.96" y="334.17" width="28.35" height="28.35"/><rect class="cls-11" x="308.93" y="334.17" width="28.35" height="28.35"/><rect class="cls-12" x="573.85" y="151.25" width="103" height="110.71" rx="13.95" ry="13.95"/><circle class="cls-13" cx="625.35" cy="178.43" r="25.82"/><circle class="cls-13" cx="625.35" cy="234.48" r="25.82"/><circle class="cls-14" cx="625.35" cy="178.43" r="17.78"/><circle class="cls-14" cx="625.35" cy="234.48" r="17.78"/><polygon class="cls-15" points="607.57 177.88 638.6 166.57 639.99 168.33 640.95 169.88 640.95 171.63 607.6 179.5 607.57 177.88"/><path class="cls-15" d="M608.47,234.48l31.77,3a.85.85,0,0,1,.73.64l.37,1.56s0,.06,0,.09l.18,1.51a.77.77,0,0,1-.07.45l-.36.76a7.88,7.88,0,0,0-.92,1.46l-32-6.85c-.51-1.11-.79-1.66-.58-2.14h0A.82.82,0,0,1,608.47,234.48Z"/><polygon class="cls-15" points="607.96 182.14 642.3 173.03 642.44 173.49 642.64 174.25 642.73 174.64 642.63 174.98 608 182.33 607.96 182.14"/><polygon class="cls-15" points="607.64 232.88 643.08 235.37 643.06 235.84 643.01 236.63 642.97 237.03 642.76 237.32 607.61 233.08 607.64 232.88"/><polygon class="cls-16" points="637.53 165.48 644.07 160.65 645.27 162 638.24 166.18 637.53 165.48"/><polygon class="cls-16" points="640.42 169.03 647.79 165.66 649.57 169.45 642.07 172.36 640.42 169.03"/><polygon class="cls-17" points="641.46 241.74 649.38 243.96 650.5 240.36 642.69 238.43 641.46 241.74"/><polygon class="cls-17" points="643.01 236.63 643.01 232.35 650.99 231.42 651.17 236.63 643.01 236.63"/><polygon class="cls-18" points="574.07 250.49 573.85 163.41 574.88 159.94 577 156.38 574.51 252.26 574.07 250.49"/><polygon class="cls-19" points="586.49 151.32 662.9 151.25 668.91 152.61 671.72 154.4 586.49 151.32"/><polygon class="cls-20" points="586.49 520.46 586.49 420.28 730 414.41 730 528.97 586.49 520.46"/><ellipse class="cls-21" cx="599.75" cy="428.25" rx="5.25" ry="2.25"/><ellipse class="cls-22" cx="601.5" cy="429.5" rx="5.25" ry="2.25"/><ellipse class="cls-21" cx="714.21" cy="423.13" rx="5.25" ry="2.25"/><ellipse class="cls-22" cx="715.96" cy="424.37" rx="5.25" ry="2.25"/><ellipse class="cls-21" cx="715.08" cy="518.13" rx="5.25" ry="2.25"/><ellipse class="cls-22" cx="716.83" cy="519.38" rx="5.25" ry="2.25"/><ellipse class="cls-21" cx="664.37" cy="426" rx="5.25" ry="2.25"/><ellipse class="cls-22" cx="666.12" cy="427.25" rx="5.25" ry="2.25"/><ellipse class="cls-21" cx="663.49" cy="515.25" rx="5.25" ry="2.25"/><ellipse class="cls-22" cx="665.24" cy="516.5" rx="5.25" ry="2.25"/><ellipse class="cls-21" cx="600.63" cy="513.63" rx="5.25" ry="2.25"/><ellipse class="cls-22" cx="602.38" cy="514.88" rx="5.25" ry="2.25"/><polygon class="cls-20" points="379.96 523.24 379.96 423.06 523.48 417.19 523.48 531.75 379.96 523.24"/><ellipse class="cls-21" cx="393.23" cy="431.04" rx="5.25" ry="2.25"/><ellipse class="cls-22" cx="394.98" cy="432.29" rx="5.25" ry="2.25"/><ellipse class="cls-21" cx="507.69" cy="425.91" rx="5.25" ry="2.25"/><ellipse class="cls-22" cx="509.44" cy="427.16" rx="5.25" ry="2.25"/><ellipse class="cls-21" cx="508.56" cy="520.91" rx="5.25" ry="2.25"/><ellipse class="cls-22" cx="510.31" cy="522.16" rx="5.25" ry="2.25"/><ellipse class="cls-21" cx="457.84" cy="428.79" rx="5.25" ry="2.25"/><ellipse class="cls-22" cx="459.59" cy="430.04" rx="5.25" ry="2.25"/><ellipse class="cls-21" cx="456.97" cy="518.04" rx="5.25" ry="2.25"/><ellipse class="cls-22" cx="458.72" cy="519.29" rx="5.25" ry="2.25"/><ellipse class="cls-21" cx="394.1" cy="516.41" rx="5.25" ry="2.25"/><ellipse class="cls-22" cx="395.85" cy="517.66" rx="5.25" ry="2.25"/><polygon class="cls-20" points="353.51 147.76 444.43 147.76 449.76 259.19 345.79 259.19 353.51 147.76"/><ellipse class="cls-21" cx="437.2" cy="158.06" rx="2.04" ry="4.08"/><ellipse class="cls-22" cx="436.06" cy="159.41" rx="2.04" ry="4.08"/><ellipse class="cls-21" cx="441.85" cy="246.93" rx="2.04" ry="4.08"/><ellipse class="cls-22" cx="440.71" cy="248.29" rx="2.04" ry="4.08"/><ellipse class="cls-21" cx="355.63" cy="247.61" rx="2.04" ry="4.08"/><ellipse class="cls-22" cx="354.5" cy="248.97" rx="2.04" ry="4.08"/><ellipse class="cls-21" cx="439.24" cy="199.53" rx="2.04" ry="4.08"/><ellipse class="cls-22" cx="438.1" cy="200.88" rx="2.04" ry="4.08"/><ellipse class="cls-21" cx="360.28" cy="200.2" rx="2.04" ry="4.08"/><ellipse class="cls-22" cx="359.15" cy="201.56" rx="2.04" ry="4.08"/><ellipse class="cls-21" cx="359.71" cy="158.73" rx="2.04" ry="4.08"/><ellipse class="cls-22" cx="358.58" cy="160.09" rx="2.04" ry="4.08"/><path class="cls-23" d="M703.67,431.67l-38.34,2.78a6.23,6.23,0,0,0-6.21,6.22v56.78a6.23,6.23,0,0,0,6.21,6.22l41.34,3a13.35,13.35,0,0,0,5.71-4.83,13,13,0,0,0,1.83-4.39V440.67a10.68,10.68,0,0,0-1.83-4.39C709.44,432.18,704.51,431.73,703.67,431.67Z"/><path class="cls-24" d="M700.1,435.33l-30.29,2.52c-2.7,0-4.91,2.52-4.91,5.6v51.24c0,3.08,2.21,5.6,4.91,5.6L702.47,503a11,11,0,0,0,4.51-4.35,12.68,12.68,0,0,0,1.45-4V443.45a10.44,10.44,0,0,0-1.45-4A9.17,9.17,0,0,0,700.1,435.33Z"/><line class="cls-25" x1="664.9" y1="449.25" x2="708.43" y2="443.45"/><line class="cls-25" x1="664.9" y1="461" x2="708.43" y2="455.75"/><line class="cls-25" x1="664.9" y1="471.69" x2="708.43" y2="466.25"/><line class="cls-25" x1="664.9" y1="482.25" x2="708.43" y2="477"/><line class="cls-25" x1="664.9" y1="494.69" x2="708.43" y2="488.75"/><line class="cls-25" x1="671.37" y1="437.72" x2="672.44" y2="500.51"/><line class="cls-25" x1="681.54" y1="501.27" x2="678.99" y2="437.08"/><line class="cls-25" x1="686.66" y1="436.45" x2="689.75" y2="501.95"/><line class="cls-25" x1="697.74" y1="502.61" x2="695" y2="435.76"/><line class="cls-25" x1="702.12" y1="435.76" x2="706.11" y2="499.95"/><polygon class="cls-26" points="714.21 440.67 714.21 496 715.33 494.69 714.21 440.67"/><rect class="cls-27" x="605.86" y="448.44" width="3.46" height="20.33"/><rect class="cls-27" x="613.51" y="448.44" width="3.46" height="20.33"/><rect class="cls-27" x="621.24" y="448.44" width="3.46" height="20.33"/><rect class="cls-27" x="621.37" y="278.2" width="7.97" height="41.92" transform="translate(924.51 -326.19) rotate(90)"/><rect class="cls-27" x="621.37" y="295.83" width="7.97" height="41.92" transform="translate(942.14 -308.56) rotate(90)"/><rect class="cls-27" x="621.37" y="313.64" width="7.97" height="41.92" transform="translate(959.95 -290.75) rotate(90)"/><rect class="cls-27" x="452.99" y="403.12" width="7.97" height="107.27" transform="translate(913.72 -0.22) rotate(90)"/><rect class="cls-27" x="452.99" y="420.75" width="7.97" height="107.27" transform="translate(931.35 17.41) rotate(90)"/><rect class="cls-27" x="452.99" y="438.56" width="7.97" height="107.27" transform="translate(949.16 35.22) rotate(90)"/><rect class="cls-27" x="620.27" y="53.65" width="7.97" height="41.92" transform="translate(698.86 -549.65) rotate(90)"/><rect class="cls-27" x="620.27" y="71.27" width="7.97" height="41.92" transform="translate(716.49 -532.02) rotate(90)"/><rect class="cls-27" x="620.27" y="89.08" width="7.97" height="41.92" transform="translate(734.3 -514.21) rotate(90)"/><rect class="cls-27" x="605.82" y="474.6" width="3.46" height="20.33"/><rect class="cls-27" x="613.47" y="474.6" width="3.46" height="20.33"/><rect class="cls-27" x="621.2" y="474.6" width="3.46" height="20.33"/><polygon class="cls-28" points="704.12 267.7 714.21 156.38 774 144.63 769 261.97 704.12 267.7"/><rect class="cls-29" x="179.81" y="146.09" width="28.35" height="37.17"/><rect class="cls-30" x="274.3" y="228.32" width="17" height="25.69"/><rect class="cls-30" x="274.3" y="151.83" width="17" height="25.69"/><rect class="cls-29" x="68.68" y="146.09" width="28.35" height="37.17"/><rect class="cls-29" x="179.81" y="222.59" width="28.35" height="37.17"/><rect class="cls-29" x="68.68" y="222.59" width="28.35" height="37.17"/><rect class="cls-29" x="176.83" y="415.95" width="28.35" height="37.17"/><rect class="cls-29" x="60.14" y="415.95" width="28.35" height="37.17"/><rect class="cls-29" x="176.83" y="492.36" width="28.35" height="37.17"/><rect class="cls-29" x="60.14" y="492.36" width="28.35" height="37.17"/><polygon class="cls-31" points="211.33 356.67 218 338.67 229 338.67 233.67 356.67 211.33 356.67"/><polygon class="cls-31" points="165.41 357.34 172.08 339.34 183.08 339.34 187.74 357.34 165.41 357.34"/><rect class="cls-32" x="75.31" y="228.32" width="14.17" height="24.72"/><rect class="cls-32" x="75.77" y="152.31" width="14.17" height="24.72"/></svg>